<?xml version="1.0" encoding="iso-8859-1"?>
<!-- Uploaded to: SVG Repo, www.svgrepo.com, Generator: SVG Repo Mixer Tools -->
<svg height="800px" width="800px" version="1.1" id="Capa_1" xmlns="http://www.w3.org/2000/svg" xmlns:xlink="http://www.w3.org/1999/xlink" 
	 viewBox="0 0 309.102 309.102" xml:space="preserve">
<g>
	<g>
		<path style="fill:#010002;" d="M152.364,169.713c-2.053,0-4.034-0.829-5.478-2.321c-1.677-1.736-2.44-4.159-2.041-6.552
			l3.58-21.558c0.263-1.563,1.008-3.007,2.13-4.129L271.546,8.201c2.971-2.977,7.805-2.977,10.776,0l18.587,18.593
			c1.426,1.426,2.226,3.359,2.226,5.388c0,2.023-0.8,3.956-2.226,5.388L179.925,164.516c-1.181,1.181-2.727,1.945-4.374,2.166
			l-22.173,2.966C153.032,169.689,152.698,169.713,152.364,169.713z"/>
	</g>
	<g>
		<polygon style="fill:#010002;" points="309.102,309.099 0,309.099 0,0.003 258.025,0.003 258.025,11.937 11.934,11.937 
			11.934,297.165 297.168,297.165 297.168,53.412 309.102,53.412 		"/>
	</g>
</g>
</svg>